<?xml version="1.0" encoding="UTF-8" standalone="no"?>
<!DOCTYPE svg PUBLIC "-//W3C//DTD SVG 1.1//EN" "http://www.w3.org/Graphics/SVG/1.1/DTD/svg11.dtd">
<svg width="100%" height="100%" viewBox="0 0 2481 2481" version="1.1" xmlns="http://www.w3.org/2000/svg" xmlns:xlink="http://www.w3.org/1999/xlink" xml:space="preserve" xmlns:serif="http://www.serif.com/" style="fill-rule:evenodd;clip-rule:evenodd;stroke-linejoin:round;stroke-miterlimit:2;">
    <rect id="Artboard1" x="0" y="0" width="2480.315" height="2480.315" style="fill:none;"/>
    <clipPath id="_clip1">
        <rect id="Artboard11" serif:id="Artboard1" x="0" y="0" width="2480.315" height="2480.315"/>
    </clipPath>
    <g clip-path="url(#_clip1)">
        <g transform="matrix(1.028571,0,0,1.028571,-35.433071,-35.433071)">
            <rect x="0" y="0" width="2480.315" height="2480.315" style="fill:none;"/>
        </g>
        <g transform="matrix(4.281673,0,0,4.281673,-1182.664166,-1786.207443)">
            <g transform="matrix(958.333333,0,0,958.333333,253,1140)">
                <path d="M0.151,0.06L0.05,0.06L0.05,-0.73L0.151,-0.73L0.151,0.06ZM0.257,0.06L0.05,0.06L0.05,-0.03L0.257,-0.03L0.257,0.06ZM0.257,-0.64L0.05,-0.64L0.05,-0.73L0.257,-0.73L0.257,-0.64Z" style="fill:white;fill-rule:nonzero;"/>
            </g>
            <g transform="matrix(958.333333,0,0,958.333333,508.875,1140)">
            </g>
        </g>
        <g transform="matrix(4.281673,0,0,4.281673,-473.230304,-1121.911684)">
            <g transform="matrix(958.333333,0,0,958.333333,253,1140)">
                <path d="M0.151,0.06L0.05,0.06L0.05,-0.73L0.151,-0.73L0.151,0.06ZM0.257,0.06L0.05,0.06L0.05,-0.03L0.257,-0.03L0.257,0.06ZM0.257,-0.64L0.05,-0.64L0.05,-0.73L0.257,-0.73L0.257,-0.64Z" style="fill:white;fill-rule:nonzero;"/>
            </g>
            <g transform="matrix(958.333333,0,0,958.333333,508.875,1140)">
            </g>
        </g>
        <g transform="matrix(4.281673,0,0,4.281673,236.748641,-456.868026)">
            <g transform="matrix(958.333333,0,0,958.333333,253,1140)">
                <path d="M0.151,0.06L0.05,0.06L0.05,-0.73L0.151,-0.73L0.151,0.06ZM0.257,0.06L0.05,0.06L0.05,-0.03L0.257,-0.03L0.257,0.06ZM0.257,-0.64L0.05,-0.64L0.05,-0.73L0.257,-0.73L0.257,-0.64Z" style="fill:white;fill-rule:nonzero;"/>
            </g>
            <g transform="matrix(958.333333,0,0,958.333333,508.875,1140)">
            </g>
        </g>
    </g>
</svg>
